# AST/ASF file generated using VICON BodyLanguage
# -----------------------------------------------
:version 1.10
:name VICON
:units
  mass 1.0
  length 0.45
  angle deg
:documentation
   .ast/.asf automatically generated from VICON data using
   VICON BodyBuilder and BodyLanguage model FoxedUp or BRILLIANT.MOD
:root
   order TX TY TZ RX RY RZ
   axis XYZ
   position 0 0 0  
   orientation 0 0 0 
:bonedata
  begin
     id 1 
     name lhipjoint
     direction 0.57768 -0.667037 0.470475 
     length 2.36008 
     axis 0 0 0  XYZ
  end
  begin
     id 2 
     name lfemur
     direction 0.34202 -0.939693 0  
     length 6.97235  
     axis 0 0 20  XYZ
    dof rx ry rz
    limits (-160.0 20.0)
           (-70.0 70.0)
           (-60.0 70.0)
  end
  begin
     id 3 
     name ltibia
     direction 0.34202 -0.939693 0   
     length 6.93428   
     axis 0 0 20   XYZ
    dof rx
    limits (-10.0 170.0)
  end
  begin
     id 4 
     name lfoot
     direction 0.133018 -0.365463 0.921272   
     length 2.18603   
     axis -90 7.62852e-016 20   XYZ
    dof rx rz
    limits (-45.0 90.0)
           (-70.0 20.0)
  end
  begin
     id 5 
     name ltoes
     direction 1.53519e-011 -4.22055e-011 1   
     length 1.07924   
     axis -90 7.62852e-016 20   XYZ
    dof rx
    limits (-90.0 20.0)
  end
  begin
     id 6 
     name rhipjoint
     direction -0.577712 -0.667019 0.470462   
     length 2.36015  
     axis 0 0 0  XYZ 
  end
  begin
     id 7 
     name rfemur
     direction -0.34202 -0.939693 0   
     length 6.71195   
     axis 0 0 -20   XYZ
    dof rx ry rz
    limits (-160.0 20.0)
           (-70.0 70.0)
           (-70.0 60.0)
  end
  begin
     id 8 
     name rtibia
     direction -0.34202 -0.939693 0   
     length 7.04592   
     axis 0 0 -20   XYZ
    dof rx
    limits (-10.0 170.0)
 end
 begin
     id 9 
     name rfoot
     direction -0.113796 -0.312651 0.943027   
     length 2.03846  
     axis -90 -7.62852e-016 -20   XYZ
    dof rx rz
    limits (-45.0 90.0)
           (-20.0 70.0)
  end
  begin
     id 10 
     name rtoes
     direction -1.53586e-011 -4.218e-011 1   
     length 1.01562   
     axis -90 -7.62852e-016 -20   XYZ
    dof rx
    limits (-90.0 20.0)
  end
  begin
     id 11 
     name lowerback
     direction -0.0417299 0.991937 -0.119667   
     length 2.05257   
     axis 0 0 0   XYZ
    dof rx ry rz
    limits (-20.0 45.0)
           (-30.0 30.0)
           (-30.0 30.0)
  end
  begin
     id 12 
     name upperback
     direction -0.00017666 0.999999 0.00105178   
     length 2.05693   
     axis 0 0 0   XYZ
    dof rx ry rz
    limits (-20.0 45.0)
           (-30.0 30.0)
           (-30.0 30.0)
  end
  begin
     id 13 
     name thorax
     direction 0.0185169 0.998203 0.0569866   
     length 2.0932   
     axis 0 0 0   XYZ
    dof rx ry rz
    limits (-20.0 45.0)
           (-30.0 30.0)
           (-30.0 30.0)
  end
  begin
     id 14 
     name lowerneck
     direction -0.0212406 0.982645 0.184277   
     length 1.72509   
     axis 0 0 0   XYZ
    dof rx ry rz
    limits (-20.0 45.0)
           (-30.0 30.0)
           (-30.0 30.0)
  end
  begin
     id 15 
     name upperneck
     direction 0.00528579 0.965323 -0.261004   
     length 1.76294   
     axis 0 0 0   XYZ
    dof rx ry rz
    limits (-20.0 45.0)
           (-30.0 30.0)
           (-30.0 30.0)
  end
  begin
     id 16
     name head
     direction 0.00695421 0.994078 -0.108445  
     length 1.78678  
     axis 0 0 0   XYZ
    dof rx ry rz
    limits (-20.0 45.0)
           (-30.0 30.0)
           (-30.0 30.0)
  end
  begin
     id 17 
     name lclavicle
     direction 0.97277 0.211305 -0.095232  
     length 3.84823  
     axis 0 0 0   XYZ
    dof ry rz
    limits (-20.0 10.0)
           (0.0 20.0)
  end
  begin
     id 18 
     name lhumerus
     direction 1 -4.48957e-011 -1.98313e-027   
     length 4.97185   
     axis 180 -30 -90   XYZ
    dof rx ry rz
    limits (-60.0 90.0)
           (-90.0 90.0)
           (-90.0 90.0)
  end
  begin
     id 19
     name lradius
     direction 1 -4.4898e-011 7.31063e-027   
     length 3.35811   
     axis 180 -30 -90   XYZ
    dof rx
    limits (-10.0 170.0)
  end
  begin
     id 20
     name lwrist
     direction 1 -4.48938e-011 9.95048e-027   
     length 1.67905   
     axis -8.75986e-015 90 90   XYZ
    dof ry
    limits (-180.0 0.0)
 end
  begin
     id 21 
     name lhand
     direction 1 -4.4901e-011 1.9901e-026   
     length 0.622776   
     axis -1.26985e-014 90 90   XYZ
    dof rx rz
    limits (-90.0 90.0)
           (-45.0 45.0)
  end
  begin
     id 22 
     name lfingers
     direction 1 -4.48961e-011 3.98019e-026   
     length 0.502098   
     axis -2.5397e-014 90 90   XYZ
    dof rx
    limits (0.0 90.0)
  end
  begin
     id 23
     name lthumb
     direction 0.707107 -6.34933e-011 0.707107   
     length 0.720915   
     axis -90 45 2.85299e-015   XYZ
    dof rx rz
    limits (-45.0 45.0)
           (-45.0 45.0)
  end
  begin
     id 24 
     name rclavicle
     direction -0.990867 0.133739 -0.0172226   
     length 3.78845  
     axis 0 0 0   XYZ 
    dof ry rz
    limits (-10.0 20.0)
           (-20.0 0.0)
  end
  begin
     id 25 
     name rhumerus
     direction -1 -4.48972e-011 -1.99267e-027  
     length 4.96493   
     axis 180 30 90   XYZ
    dof rx ry rz
    limits (-90.0 60.0)
           (-90.0 90.0)
           (-90.0 90.0)
  end
  begin
     id 26 
     name rradius
     direction -1 -4.48969e-011 8.96093e-027   
     length 3.34929   
     axis 180 30 90   XYZ
    dof rx
    limits (-10.0 170.0)
  end
  begin
     id 27 
     name rwrist
     direction -1 -4.48953e-011 9.95048e-027   
     length 1.67464   
     axis -8.75986e-015 -90 -90   XYZ
    dof ry
    limits (-180.0 0.0)
  end
  begin
     id 28
     name rhand
     direction -1 -4.49001e-011 1.9901e-026   
     length 0.638041   
     axis -1.26985e-014 -90 -90   XYZ
    dof rx rz
    limits (-90.0 90.0)
           (-45.0 45.0)
  end
  begin
     id 29
     name rfingers
     direction -1 -4.48967e-011 3.98019e-026   
     length 0.514405   
     axis -2.5397e-014 -90 -90   XYZ
    dof rx
    limits (0.0 90.0)
  end
  begin
     id 30
     name rthumb
     direction -0.707107 -6.34904e-011 0.707107   
     length 0.738586   
     axis -90 -45 -2.85299e-015   XYZ
    dof rx rz
    limits (-45.0 45.0)
           (-45.0 45.0)
  end
:hierarchy
  begin
    root lhipjoint rhipjoint lowerback
    lhipjoint lfemur
    lfemur ltibia
    ltibia lfoot
    lfoot ltoes
    rhipjoint rfemur
    rfemur rtibia
    rtibia rfoot
    rfoot rtoes
    lowerback upperback
    upperback thorax
    thorax lowerneck lclavicle rclavicle
    lowerneck upperneck
    upperneck head
    lclavicle lhumerus
    lhumerus lradius
    lradius lwrist
    lwrist lhand lthumb
    lhand lfingers
    rclavicle rhumerus
    rhumerus rradius
    rradius rwrist
    rwrist rhand rthumb
    rhand rfingers
  end

#!OML:ASF E:\Mandelcareful walks\Project 1\Capture day 1\Session 1\Subject1.ASF
:FULLY-SPECIFIED
:DEGREES
296
root -10.3013 14.9173 7.16167 -354.872 142.835 -365.884
lowerback 39.8657 -1.88836 1.43338
upperback 7.32923 0.0815417 -0.364471
thorax -11.189 0.775028 -1.32835
lowerneck -27.3511 6.23667 2.14115
upperneck 23.8706 13.7203 -15.3041
head 14.1917 4.34433 -3.58074
rclavicle -9.54166e-015 1.59028e-015
rhumerus -12.9561 3.0225 -79.5831
rradius 53.5677
rwrist -22.1686
rhand -16.5111 -26.7569
rfingers 7.12502
rthumb 9.70703 -56.5132
lclavicle -9.54166e-015 1.59028e-015
lhumerus -17.4902 -7.91333 82.0245
lradius 45.6336
lwrist 21.1496
lhand -27.7743 -15.6257
lfingers 7.12502
lthumb -1.16789 14.3509
rfemur -46.2347 -11.22 18.6293
rtibia 68.5233
rfoot -29.8056 -6.81286
rtoes 2.46595
lfemur -53.0289 9.03108 -12.6754
ltibia 79.0934
lfoot -12.1581 -6.72256
ltoes -1.15943
297
root -10.2059 14.9143 7.16258 -355.258 143.433 -365.914
lowerback 40.4126 -1.86173 1.41114
upperback 7.45313 0.200464 -0.32767
thorax -11.2239 0.860654 -1.33418
lowerneck -27.6106 6.05584 1.98908
upperneck 23.7194 13.4674 -15.2485
head 14.1339 4.2237 -3.58055
rclavicle 2.06736e-014 2.14687e-014
rhumerus -12.9437 3.05497 -79.5728
rradius 55.4828
rwrist -21.8403
rhand -16.635 -26.7666
rfingers 7.12502
rthumb 9.58749 -56.5284
lclavicle 2.06736e-014 2.14687e-014
lhumerus -18.0864 -7.25183 82.0592
lradius 46.5886
lwrist 21.646
lhand -27.6775 -15.9387
lfingers 7.12502
lthumb -1.07444 14.0383
rfemur -45.3847 -11.8534 18.83
rtibia 68.4701
rfoot -30.0289 -6.63689
rtoes 3.54697
lfemur -53.0501 9.83179 -12.7771
ltibia 76.5151
lfoot -13.1567 -5.46782
ltoes -4.94545
298
root -10.1233 14.9131 7.15512 -355.543 144.215 -365.884
lowerback 40.9135 -1.99825 1.64536
upperback 7.54891 0.216326 -0.317668
thorax -11.2762 0.892596 -1.45854
lowerneck -27.7119 5.9386 2.09558
upperneck 23.4621 13.298 -15.5116
head 14.0638 4.14077 -3.73162
rclavicle 5.48646e-014 -7.95139e-015
rhumerus -12.9566 3.21751 -79.53
rradius 57.4789
rwrist -21.4445
rhand -16.7751 -26.328
rfingers 7.12502
rthumb 9.45237 -56.0961
lclavicle 5.48646e-014 -7.95139e-015
lhumerus -18.6955 -6.70006 82.1216
lradius 47.7426
lwrist 22.1196
lhand -28.0775 -15.9778
lfingers 7.12502
lthumb -1.46077 13.9969
rfemur -44.6533 -12.7105 19.0027
rtibia 68.4731
rfoot -30.0257 -6.01595
rtoes 6.42665
lfemur -53.2766 10.6981 -13.4973
ltibia 73.567
lfoot -14.0431 -2.66417
ltoes -15.6856
299
root -10.0353 14.926 7.14436 -355.809 144.637 -365.888
lowerback 41.338 -1.88056 1.61384
upperback 7.63473 0.422133 -0.304833
thorax -11.3073 1.00999 -1.52303
lowerneck -27.8407 5.81728 2.09393
upperneck 23.3924 13.1383 -15.5736
head 14.0492 4.06441 -3.78748
rclavicle -2.14687e-014 6.20208e-014
rhumerus -12.9543 3.60837 -79.4293
rradius 59.4155
rwrist -21.6223
rhand -17.4689 -25.742
rfingers 7.12502
rthumb 8.78287 -55.5392
lclavicle -2.14687e-014 6.20208e-014
lhumerus -19.2182 -6.27012 82.146
lradius 48.844
lwrist 22.515
lhand -28.3031 -16.3495
lfingers 7.12502
lthumb -1.67869 13.6236
rfemur -43.9697 -13.2374 19.1507
rtibia 68.4582
rfoot -29.971 -5.45828
rtoes 8.68962
lfemur -53.0002 11.306 -13.2284
ltibia 70.3809
lfoot -14.0036 -2.1117
ltoes -12.7104
300
root -9.94656 14.9294 7.12491 -356.174 144.752 -365.95
lowerback 41.8216 -1.56791 1.30803
upperback 7.71811 0.755575 -0.255256
thorax -11.3557 1.18877 -1.46288
lowerneck -27.9354 5.6868 1.91269
upperneck 23.4115 13.0123 -15.4875
head 14.0406 4.00188 -3.74894
rclavicle -5.56597e-015 -3.97569e-014
rhumerus -12.9354 3.74326 -79.3698
rradius 61.3173
rwrist -21.6409
rhand -17.8949 -25.4572
rfingers 7.12502
rthumb 8.37175 -55.2713
lclavicle -5.56597e-015 -3.97569e-014
lhumerus -19.7433 -5.78852 82.1286
lradius 50.0143
lwrist 22.838
lhand -28.3004 -16.9802
lfingers 7.12502
lthumb -1.67609 12.993
rfemur -43.2849 -13.5332 19.2044
rtibia 68.4708
rfoot -30.2075 -5.26561
rtoes 8.37919
lfemur -52.5152 12.6465 -13.1601
ltibia 67.0347
lfoot -13.636 -1.51473
ltoes -12.412
301
root -9.87725 14.9357 7.09881 -356.475 145.18 -366.202
lowerback 42.0805 -1.4861 1.12712
upperback 7.79784 0.83501 -0.242142
thorax -11.3435 1.24832 -1.39404
lowerneck -28.0316 5.5984 1.75847
upperneck 23.4541 12.9737 -15.4759
head 14.0635 3.96988 -3.72653
rclavicle -3.18055e-015 -5.1684e-014
rhumerus -12.7807 3.91535 -79.3615
rradius 63.1467
rwrist -21.4311
rhand -17.5984 -25.5196
rfingers 7.12502
rthumb 8.65794 -55.322
lclavicle -3.18055e-015 -5.1684e-014
lhumerus -20.2988 -5.1693 82.043
lradius 51.3772
lwrist 22.9727
lhand -28.7203 -17.4034
lfingers 7.12502
lthumb -2.08158 12.5662
rfemur -42.8057 -14.2567 19.0385
rtibia 68.4856
rfoot -30.7186 -5.42112
rtoes 5.89978
lfemur -52.1079 12.6333 -12.963
ltibia 63.6249
lfoot -13.1547 -0.268747
ltoes -12.2045
302
root -9.8081 14.9521 7.06769 -356.79 145.214 -366.382
lowerback 42.3913 -1.24819 0.817094
upperback 7.89607 1.04431 -0.279242
thorax -11.3228 1.36907 -1.37033
lowerneck -28.2496 5.53846 1.61845
upperneck 23.6313 12.9793 -15.4033
head 14.1677 3.95036 -3.67639
rclavicle -1.10524e-013 1.11319e-014
rhumerus -12.4331 4.32942 -79.3375
rradius 64.7511
rwrist -21.2374
rhand -17.5188 -25.2937
rfingers 7.12502
rthumb 8.73469 -55.093
lclavicle -1.10524e-013 1.11319e-014
lhumerus -20.7448 -4.6369 81.813
lradius 52.792
lwrist 23.0686
lhand -29.4585 -17.5014
lfingers 7.12502
lthumb -2.79455 12.4601
rfemur -42.2041 -14.5854 18.9386
rtibia 68.4311
rfoot -31.0567 -5.39435
rtoes 5.28694
lfemur -51.4571 13.0161 -12.6179
ltibia 60.2546
lfoot -12.5632 0.919767
ltoes -12.3721
303
root -9.74305 14.965 7.03046 -357.172 145.122 -366.466
lowerback 42.8357 -1.01687 0.527561
upperback 8.00687 1.26141 -0.341711
thorax -11.3265 1.49712 -1.39152
lowerneck -28.4309 5.51262 1.43442
upperneck 23.8157 13.0265 -15.2613
head 14.2616 3.95335 -3.58198
rclavicle 2.38542e-015 9.54166e-015
rhumerus -11.8707 4.81337 -79.2328
rradius 66.0636
rwrist -20.9733
rhand -18.0626 -24.583
rfingers 7.12502
rthumb 8.20991 -54.4035
lclavicle 2.38542e-015 9.54166e-015
lhumerus -21.0468 -4.10639 81.4978
lradius 54.1664
lwrist 23.2574
lhand -30.1468 -17.6232
lfingers 7.12502
lthumb -3.45925 12.3285
rfemur -41.466 -14.9173 18.9015
rtibia 68.3539
rfoot -31.1292 -4.79549
rtoes 7.44644
lfemur -50.6244 13.653 -12.2636
ltibia 56.9735
lfoot -11.5186 2.38295
ltoes -13.3952
304
root -9.68953 14.9778 6.98511 -357.658 145.272 -366.626
lowerback 43.2853 -0.950128 0.348999
upperback 8.14032 1.33468 -0.409398
thorax -11.3053 1.56453 -1.41337
lowerneck -28.3749 5.51446 1.28472
upperneck 23.8306 13.0889 -15.2082
head 14.2481 3.97762 -3.52154
rclavicle 7.79236e-014 -1.35969e-013
rhumerus -11.2358 5.36151 -78.988
rradius 67.3225
rwrist -20.8585
rhand -19.2638 -24.0955
rfingers 7.12502
rthumb 7.05054 -53.9581
lclavicle 7.79236e-014 -1.35969e-013
lhumerus -21.2094 -3.50449 81.1963
lradius 55.4774
lwrist 23.583
lhand -30.4702 -18.0919
lfingers 7.12502
lthumb -3.7715 11.8545
rfemur -40.6423 -15.6314 18.6747
rtibia 68.2724
rfoot -31.306 -4.00999
rtoes 9.16877
lfemur -49.6787 13.6513 -11.8749
ltibia 53.8012
lfoot -9.71005 3.79361
ltoes -11.9785
305
root -9.64097 14.9928 6.93865 -358.151 145.266 -366.79
lowerback 43.7531 -0.768035 0.110465
upperback 8.26087 1.51741 -0.480217
thorax -11.3004 1.68004 -1.45773
lowerneck -28.236 5.4666 1.23644
upperneck 23.7975 13.075 -15.2848
head 14.2105 3.97176 -3.54651
rclavicle -1.4074e-013 5.80451e-014
rhumerus -10.6151 5.72078 -78.7397
rradius 68.4638
rwrist -20.6416
rhand -19.2175 -24.4064
rfingers 7.12502
rthumb 7.09525 -54.2674
lclavicle -1.4074e-013 5.80451e-014
lhumerus -21.2189 -3.0834 80.8675
lradius 56.6502
lwrist 23.9015
lhand -30.4637 -18.6441
lfingers 7.12502
lthumb -3.76527 11.3024
rfemur -39.8607 -15.9556 18.3676
rtibia 68.2064
rfoot -31.348 -3.63194
rtoes 9.11784
lfemur -48.6395 13.6586 -11.4194
ltibia 50.7808
lfoot -7.24292 5.02024
ltoes -9.32635
306
root -9.5932 15.0031 6.8886 -358.632 144.956 -366.886
lowerback 44.2042 -0.415779 -0.274263
upperback 8.40782 1.84247 -0.53767
thorax -11.2576 1.86147 -1.47601
lowerneck -28.3235 5.37526 1.11001
upperneck 23.9851 13.0411 -15.2314
head 14.2921 3.94109 -3.51625
rclavicle -5.80451e-014 -1.98785e-014
rhumerus -9.78033 5.86728 -78.6211
rradius 69.1584
rwrist -20.1669
rhand -16.1348 -25.4053
rfingers 7.12502
rthumb 10.0701 -55.1444
lclavicle -5.80451e-014 -1.98785e-014
lhumerus -21.0849 -2.83403 80.4638
lradius 57.7873
lwrist 24.1759
lhand -30.6324 -18.8824
lfingers 7.12502
lthumb -3.92814 11.0611
rfemur -39.2073 -15.7642 18.1021
rtibia 68.2144
rfoot -30.967 -3.49001
rtoes 9.00701
lfemur -47.5492 14.3757 -11.1399
ltibia 47.9461
lfoot -4.54787 6.18959
ltoes -11.1688
307
root -9.54988 15.0128 6.82978 -359.111 144.681 -366.944
lowerback 44.6969 -0.107334 -0.593766
upperback 8.52945 2.13809 -0.591308
thorax -11.2539 2.02709 -1.51423
lowerneck -28.5463 5.30102 0.903778
upperneck 24.3947 13.0558 -15.002
head 14.4779 3.92464 -3.39706
rclavicle -2.78299e-014 6.59965e-014
rhumerus -8.29753 7.27602 -76.3868
rradius 69.6228
rwrist -22.0356
rhand -15.9132 -25.9065
rfingers 7.12502
rthumb 10.2839 -55.635
lclavicle -2.78299e-014 6.59965e-014
lhumerus -20.8671 -2.76534 80.0477
lradius 58.9143
lwrist 24.4758
lhand -31.1181 -18.8406
lfingers 7.12502
lthumb -4.39721 11.0937
rfemur -38.5402 -15.5941 17.8093
rtibia 68.2772
rfoot -30.6422 -3.28976
rtoes 9.02665
lfemur -46.4194 15.025 -10.8154
ltibia 45.357
lfoot -2.19254 7.13828
ltoes -14.1967
